#N canvas -20 136 621 568 10;
#X obj 98 83 adc~;
#X obj 48 42 gemhead;
#X obj 98 208 *~;
#X obj 113 183 inlet;
#X obj 508 87 vradio 15 1 0 3 empty empty empty 0 -8 0 10 -262144 -1
-1 1;
#X floatatom 508 138 5 0 0 0 - - -;
#X msg 508 233 reset \, fullscreen \$1 \, create \, 1;
#X text 530 84 deactivate fullscreen;
#X text 529 101 fullscreen on screen 1;
#X text 529 117 fullscreen on screen 2;
#X msg 521 288 0 \, destroy;
#N canvas 107 50 450 300 esc 0;
#X obj 65 20 gemkeyboard;
#X obj 65 167 outlet;
#X obj 89 71 keyname;
#X obj 128 96 sel Escape;
#X obj 65 41 sel 53;
#X obj 189 47 sel Escape;
#X obj 150 22 gemkeyname;
#X connect 0 0 4 0;
#X connect 2 1 3 0;
#X connect 3 0 1 0;
#X connect 4 0 1 0;
#X connect 5 0 1 0;
#X connect 6 1 5 0;
#X restore 521 266 pd esc;
#X obj 403 44 inlet;
#X msg 403 89 1, f 2;
#X msg 508 202 reset \, dimen 640 480 \, create \, 1;
#X obj 669 166 inlet;
#X obj 210 81 loadbang;
#X msg 210 133 100;
#X obj 291 85 loadbang;
#X msg 291 117 \; pd dsp 1;
#X obj 403 10 loadbang;
#X obj 98 120 hip~ 250;
#X obj 49 239 scopeXYZ 1500;
#X obj 509 335 gemwin 30;
#X obj 72 64 osc~ 30;
#X obj 74 177 *~ 5;
#X connect 0 0 21 0;
#X connect 1 0 22 0;
#X connect 2 0 22 2;
#X connect 3 0 2 1;
#X connect 4 0 5 0;
#X connect 5 0 6 0;
#X connect 6 0 23 0;
#X connect 10 0 23 0;
#X connect 11 0 10 0;
#X connect 12 0 13 0;
#X connect 13 0 6 0;
#X connect 14 0 23 0;
#X connect 15 0 14 0;
#X connect 16 0 17 0;
#X connect 17 0 2 1;
#X connect 18 0 19 0;
#X connect 20 0 13 0;
#X connect 21 0 2 0;
#X connect 24 0 25 0;
#X connect 25 0 22 1;
